<?xml version="1.0" standalone="no"?>
<!DOCTYPE svg PUBLIC "-//W3C//DTD SVG 20010904//EN"
 "http://www.w3.org/TR/2001/REC-SVG-20010904/DTD/svg10.dtd">
<svg version="1.0" xmlns="http://www.w3.org/2000/svg"
 width="510.000000pt" height="510.000000pt" viewBox="0 0 510.000000 510.000000"
 preserveAspectRatio="xMidYMid meet">
<metadata>
Created by potrace 1.14, written by Peter Selinger 2001-2017
</metadata>
<g transform="translate(0.000000,510.000000) scale(0.100000,-0.100000)"
fill="#000000" stroke="none">
<path d="M4191 4740 c0 -8 4 -22 9 -30 12 -18 12 -2 0 25 -6 13 -9 15 -9 5z"/>
<path d="M4224 4678 c-13 -37 -13 -51 -4 -67 11 -18 12 -13 14 47 2 48 1 51
-10 20z"/>
<path d="M4262 4681 c-22 -19 -28 -31 -14 -31 7 1 46 50 39 50 -2 0 -14 -8
-25 -19z"/>
<path d="M4173 4664 c-3 -8 -1 -20 6 -27 6 -6 11 -18 11 -26 0 -12 -3 -11 -13
3 -11 15 -14 10 -26 -45 -14 -69 -45 -139 -62 -139 -6 0 -8 -4 -5 -8 3 -5 -4
-15 -15 -22 -10 -8 -19 -21 -19 -29 0 -8 12 -1 30 17 17 18 30 28 30 23 0 -5
3 -17 7 -27 4 -12 3 -15 -5 -10 -7 4 -12 4 -12 -1 0 -4 -3 -19 -6 -33 -4 -20
-3 -22 5 -10 9 13 11 13 11 -2 0 -11 -8 -18 -20 -18 -12 0 -25 -10 -32 -25
-14 -30 -34 -32 -41 -4 -3 13 2 28 14 40 11 11 17 24 14 30 -9 14 -25 1 -19
-15 3 -7 -2 -16 -10 -19 -26 -10 -20 -64 10 -92 31 -28 73 -39 120 -30 37 6
71 46 58 66 -4 8 -3 9 4 5 18 -11 11 43 -7 57 -12 9 -13 9 -7 0 4 -7 5 -13 1
-13 -8 0 -27 50 -32 83 -5 32 22 142 41 172 9 13 10 28 5 43 -5 13 -6 29 -2
34 3 7 1 8 -5 4 -11 -6 -16 6 -13 27 2 13 -10 7 -16 -9z m20 -89 c-3 -9 -8
-14 -10 -11 -3 3 -2 9 2 15 9 16 15 13 8 -4z m-56 -247 c-3 -8 -6 -5 -6 6 -1
11 2 17 5 13 3 -3 4 -12 1 -19z m-27 -42 c0 -3 -4 -8 -10 -11 -5 -3 -10 -1
-10 4 0 6 5 11 10 11 6 0 10 -2 10 -4z"/>
<path d="M3817 4417 c-13 -9 -18 -23 -15 -42 2 -25 8 -31 32 -33 27 -3 28 -5
22 -45 -10 -67 -65 -167 -122 -225 -49 -48 -176 -122 -212 -122 -7 0 -10 -5
-6 -11 4 -8 0 -9 -15 -4 -12 4 -21 2 -21 -4 0 -6 -7 -8 -15 -5 -8 4 -21 1 -29
-5 -7 -6 -26 -13 -42 -15 -42 -5 -109 -42 -89 -50 8 -3 22 -2 32 1 12 5 14 3
8 -8 -5 -8 -5 -11 1 -6 5 5 9 14 9 19 0 6 19 18 43 26 23 7 42 18 42 23 0 5 7
9 15 9 28 0 15 -17 -27 -36 -24 -10 -52 -27 -63 -37 -10 -9 -26 -15 -33 -12
-9 3 -12 0 -9 -9 3 -8 -1 -17 -9 -20 -9 -4 -12 -2 -8 5 4 8 0 7 -15 0 -11 -7
-21 -17 -21 -24 0 -7 4 -6 10 3 5 8 10 10 10 5 0 -6 -7 -20 -15 -31 -8 -12
-11 -25 -7 -30 4 -5 -1 -2 -11 6 -16 12 -17 14 -2 22 8 5 13 13 10 18 -10 16
-86 -73 -81 -93 3 -14 0 -17 -11 -13 -11 5 -14 2 -9 -11 6 -15 5 -16 -6 -5
-11 11 -9 20 10 54 16 29 19 45 12 54 -8 8 -8 14 0 19 5 3 10 12 10 18 0 7
-14 -3 -30 -21 -17 -18 -30 -29 -30 -25 0 12 -60 -50 -95 -99 -19 -26 -30 -50
-25 -53 6 -3 10 -14 10 -24 0 -12 9 -18 34 -19 26 -2 40 5 65 30 17 18 30 37
27 43 -2 7 7 11 23 10 26 -1 28 1 25 31 -2 26 3 36 23 49 14 10 22 12 19 6 -8
-12 21 -11 42 2 7 5 12 4 12 -2 0 -6 6 -11 14 -11 18 0 22 -6 31 -47 6 -28 4
-33 -13 -33 -12 0 -22 -9 -25 -21 -4 -14 -10 -18 -18 -13 -9 5 -10 2 -6 -10 4
-10 7 -22 7 -27 0 -6 4 -8 9 -4 5 3 13 1 16 -5 4 -6 3 -10 -2 -8 -17 4 -73
-14 -73 -24 0 -6 -7 -7 -16 -4 -8 3 -12 2 -9 -4 3 -6 0 -13 -9 -16 -8 -3 -17
-12 -20 -20 -4 -10 -2 -13 7 -8 8 5 8 2 -2 -9 -7 -9 -18 -14 -24 -10 -6 3 -7
1 -3 -6 5 -7 -3 -26 -18 -45 -39 -51 -244 -227 -251 -216 -4 6 -1 9 7 8 7 -2
12 3 11 10 -2 6 4 12 13 12 14 0 15 2 3 17 -12 14 -12 16 1 11 11 -4 16 3 17
24 1 17 7 36 14 44 6 7 8 18 4 25 -6 8 -10 7 -16 -2 -7 -11 -9 -10 -9 3 0 9 6
18 13 21 23 9 -10 30 -60 38 -26 4 -112 11 -191 15 -165 8 -158 17 -86 -101
24 -38 62 -103 84 -142 23 -40 46 -75 50 -78 5 -3 7 -12 3 -20 -3 -9 -1 -21 4
-28 6 -6 10 -60 9 -118 -1 -128 -9 -141 -93 -158 -72 -14 -286 -15 -281 -1 2
6 25 27 53 48 27 20 63 59 80 86 27 45 30 58 33 151 2 55 0 116 -5 135 -7 26
-9 9 -9 -71 0 -94 -2 -109 -28 -159 -15 -30 -39 -67 -54 -83 -34 -35 -144
-107 -165 -107 -40 0 -20 28 72 97 2 2 2 5 0 8 -3 2 -40 -6 -83 -19 -76 -24
-126 -56 -126 -82 0 -23 63 -62 140 -86 69 -21 93 -23 285 -23 208 0 211 0
265 27 65 31 83 45 98 75 26 48 3 114 -53 151 -30 19 -35 28 -35 60 l0 38 58
-7 c31 -4 76 -11 98 -17 27 -6 48 -6 59 1 13 7 16 6 11 -2 -10 -15 5 -13 26 3
10 7 14 16 10 20 -14 15 132 -45 183 -74 110 -63 169 -162 146 -246 -21 -77
-144 -169 -306 -229 -87 -32 -236 -54 -425 -61 -80 -3 -166 -10 -192 -14 -90
-18 -389 24 -553 77 -96 30 -205 80 -205 93 0 5 -18 19 -40 30 -22 11 -40 25
-40 30 0 6 -6 10 -13 10 -15 0 -80 65 -96 97 -6 12 -11 41 -11 66 0 100 112
200 308 275 166 65 478 111 547 82 13 -5 -2 -7 -40 -4 -45 2 -52 1 -30 -5 17
-5 45 -9 63 -10 31 -1 32 1 32 37 0 49 -23 145 -49 206 l-21 48 -98 -7 c-546
-39 -989 -213 -1101 -434 -28 -55 -26 -83 11 -153 90 -169 395 -344 768 -438
134 -35 367 -70 459 -70 44 0 70 -5 81 -15 12 -11 53 -18 132 -24 63 -5 124
-14 136 -20 29 -16 52 -62 52 -106 l0 -35 -217 0 c-455 0 -791 69 -1128 230
-213 103 -352 209 -423 323 l-37 61 -3 -63 c-3 -56 0 -67 33 -120 166 -274
499 -487 920 -591 148 -36 393 -69 526 -71 17 0 29 -6 32 -18 4 -18 44 -31 92
-31 12 0 22 -6 23 -12 15 -106 17 -113 30 -93 11 18 12 16 6 -15 -8 -42 -13
-49 -23 -31 -13 21 -22 -32 -19 -114 3 -81 -6 -106 -28 -78 -13 17 -13 17 -14
0 0 -34 -20 -6 -21 31 -1 28 -3 31 -6 12 -3 -14 -11 -32 -18 -40 -9 -10 -11
-20 -5 -30 9 -13 10 -13 11 0 1 8 5 -3 8 -25 9 -58 4 -73 -25 -67 -18 3 -26
-1 -33 -19 -8 -19 -10 -20 -10 -6 -1 10 -5 15 -11 12 -16 -10 -12 -33 8 -38
16 -4 16 -5 0 -6 -12 -1 -18 -9 -17 -23 0 -13 3 -17 6 -10 9 23 22 12 17 -14
-3 -16 2 -34 11 -44 10 -11 12 -20 6 -24 -5 -4 -12 -2 -16 4 -3 5 -3 10 1 10
4 0 -1 9 -10 19 -10 11 -24 17 -31 15 -9 -4 -11 3 -8 23 4 22 2 25 -6 13 -18
-25 -13 -50 10 -50 18 0 16 -5 -18 -45 -25 -29 -44 -44 -55 -41 -22 5 -22 2
-2 -19 15 -15 14 -16 -8 -10 -20 5 -30 1 -46 -19 -11 -14 -26 -26 -33 -26 -11
0 -11 -2 -1 -8 9 -6 5 -12 -15 -22 -15 -8 -35 -15 -43 -15 -8 -1 -14 -5 -13
-11 1 -5 -11 -9 -25 -8 -15 1 -33 -4 -41 -10 -21 -17 -168 -11 -224 8 -136 48
-359 237 -489 416 -158 217 -309 538 -377 805 -10 39 -12 40 -51 39 -55 -2
-54 -2 -39 -21 13 -17 12 -17 -4 -4 -17 13 -18 13 -15 -1 3 -15 -65 -82 -129
-127 -31 -21 -48 -51 -20 -35 6 4 9 4 5 -1 -4 -4 -3 -14 2 -20 25 -30 -43 -66
-155 -84 -27 -5 -42 -9 -33 -10 15 -1 13 -10 -17 -64 -57 -103 -78 -179 -79
-287 -1 -146 50 -272 170 -415 270 -325 764 -558 1378 -651 141 -21 650 -31
798 -14 447 48 793 161 1144 372 45 26 113 59 150 72 131 45 299 119 327 144
55 52 18 73 -83 47 -34 -9 -64 -14 -66 -12 -2 2 11 21 29 43 50 60 94 131 119
193 33 82 33 248 -1 346 -22 66 -82 178 -101 190 -5 3 -33 -10 -62 -28 -123
-79 -313 -155 -428 -171 l-45 -7 33 16 c18 8 48 25 65 37 17 12 36 23 42 25
24 5 202 86 226 104 15 10 30 19 35 19 4 0 22 11 40 25 18 14 37 25 42 25 5 0
45 33 89 74 65 61 88 91 124 162 39 77 44 94 43 153 -1 144 -110 249 -259 251
l-50 0 30 -19 c36 -21 79 -70 102 -114 37 -72 -8 -198 -115 -316 l-58 -65 -35
26 c-19 14 -74 47 -124 74 -49 26 -91 48 -93 49 -1 1 3 35 10 76 10 59 22 87
56 139 24 36 57 78 73 93 16 16 27 33 24 38 -4 5 -3 9 2 9 14 0 37 64 34 95
-3 33 -27 65 -47 65 -7 0 -25 5 -40 10 -26 10 -26 11 -9 30 10 11 33 22 52 26
19 4 32 11 30 18 -9 25 112 223 183 298 27 29 76 100 108 158 58 102 112 170
149 185 15 6 12 9 -15 17 -18 5 -31 12 -28 16 2 4 -7 7 -20 7 -26 0 -33 -12
-9 -17 8 -2 -8 -10 -35 -19 -39 -13 -47 -14 -43 -3 3 8 14 14 24 14 10 0 19 5
19 11 0 5 -4 8 -9 5 -5 -4 -56 -15 -113 -26 -56 -11 -112 -24 -123 -29 -50
-22 -84 -30 -130 -32 -99 -4 -119 21 -63 81 18 19 42 56 54 81 29 61 150 188
211 221 26 15 81 36 122 47 40 11 79 28 87 38 15 20 19 77 5 69 -5 -3 -8 2 -7
12 0 10 -6 16 -16 16 -10 -1 -16 2 -13 6 16 25 -86 21 -114 -4 -10 -9 -21 -13
-26 -9 -4 5 -5 2 -1 -4 4 -8 2 -13 -7 -13 -19 0 -49 -34 -40 -45 5 -4 3 -5 -3
-2 -6 4 -19 -2 -29 -13 -10 -11 -16 -20 -13 -20 2 0 -17 -23 -43 -52 -27 -28
-46 -55 -43 -60 3 -4 0 -8 -6 -8 -6 0 -8 -5 -5 -10 4 -6 1 -9 -7 -8 -7 2 -12
-4 -10 -12 2 -8 0 -12 -4 -7 -8 8 -76 -52 -70 -62 2 -3 -8 -15 -22 -25 -14
-11 -22 -14 -18 -7 4 6 -20 -7 -55 -29 -65 -42 -96 -53 -196 -71 -75 -13 -118
1 -118 40 0 19 11 31 45 51 43 25 66 60 38 60 -23 -1 -128 -66 -121 -75 5 -4
2 -5 -5 -1 -7 4 -19 3 -27 -4 -22 -18 -157 -25 -186 -9 -13 7 -27 12 -31 11
-5 -1 -7 1 -6 6 1 4 -4 26 -10 48 -16 55 -6 98 31 134 52 50 104 70 188 70 91
0 141 21 190 78 69 81 106 188 115 332 4 60 1 92 -8 110 -16 29 -45 36 -71 17z
m663 -402 c0 -3 -22 -16 -50 -29 -27 -13 -50 -20 -50 -15 0 5 8 12 18 15 9 3
31 12 47 20 34 16 35 16 35 9z m28 -70 c-3 -18 -11 -20 -71 -20 -37 0 -67 -3
-67 -6 0 -3 -11 -11 -25 -17 -22 -10 -24 -10 -14 6 13 21 58 44 70 36 5 -3 9
1 9 9 0 8 17 21 38 29 33 14 38 14 50 -1 7 -9 11 -25 10 -36z m-1037 -484
c195 -66 333 -144 434 -247 101 -103 135 -191 135 -353 0 -128 -16 -170 -105
-275 -134 -158 -358 -284 -655 -369 -117 -34 -249 -62 -255 -55 -1 2 4 23 11
48 19 66 71 121 133 144 56 20 61 28 30 49 -20 15 -20 15 13 22 59 11 220 67
296 102 175 79 316 207 356 321 11 31 11 45 1 75 -49 144 -332 320 -638 398
-45 11 -84 22 -86 24 -5 6 51 78 82 104 71 62 96 63 248 12z m-549 -158 c-5
-10 -7 -25 -5 -33 4 -13 3 -13 -6 -1 -9 14 2 51 15 51 2 0 1 -8 -4 -17z m-56
-115 c5 -7 3 -8 -6 -3 -8 5 -11 3 -8 -6 3 -8 11 -13 18 -11 10 2 10 -1 -1 -15
-31 -39 -49 -56 -50 -47 -1 5 -5 -2 -9 -16 -7 -23 -8 -23 -9 -3 -1 12 4 25 9
28 6 3 10 13 10 21 0 14 28 64 36 64 1 0 6 -5 10 -12z m39 -161 c19 -4 19 -5
-1 -6 -12 0 -28 7 -35 17 -12 15 -12 16 1 6 8 -7 24 -14 35 -17z m-472 -317
c44 0 67 -4 67 -11 0 -15 -143 -4 -168 12 -14 8 -13 9 8 5 14 -3 55 -6 93 -6z
m677 -336 c-30 -14 -70 -35 -90 -47 -26 -16 -32 -17 -22 -4 17 20 128 77 151
77 9 0 -9 -12 -39 -26z m-307 -44 c26 -13 47 -28 47 -33 0 -10 -9 -8 -78 18
-24 8 -78 18 -120 22 -121 9 -123 24 -2 20 86 -3 114 -8 153 -27z m4 -537 c-3
-10 -5 -4 -5 12 0 17 2 24 5 18 2 -7 2 -21 0 -30z m-240 -355 c-3 -8 -6 -5 -6
6 -1 11 2 17 5 13 3 -3 4 -12 1 -19z m8 -58 c3 -5 1 -10 -4 -10 -6 0 -11 5
-11 10 0 6 2 10 4 10 3 0 8 -4 11 -10z m-160 -249 c3 -5 2 -12 -3 -15 -5 -3
-9 1 -9 9 0 17 3 19 12 6z m-68 -27 c-3 -3 -12 -4 -19 -1 -8 3 -5 6 6 6 11 1
17 -2 13 -5z m1498 -83 c3 -5 -21 -19 -52 -31 -32 -11 -95 -44 -141 -71 -106
-65 -145 -58 -81 15 48 56 253 120 274 87z m-585 -276 c-32 -18 -164 -62 -210
-69 -39 -6 -28 -2 65 27 28 9 73 25 100 35 60 24 80 27 45 7z"/>
<path d="M2836 3154 c-9 -23 -2 -28 13 -10 7 8 8 17 3 20 -6 3 -13 -1 -16 -10z"/>
<path d="M3262 3853 c-6 -3 -9 -10 -5 -16 4 -6 0 -8 -10 -4 -10 3 -17 2 -17
-3 0 -19 20 -20 50 -2 26 16 28 20 13 24 -10 3 -24 3 -31 1z"/>
<path d="M3828 3819 c-24 -14 -23 -49 1 -49 19 0 31 18 31 46 0 16 -8 17 -32
3z"/>
<path d="M2695 3811 c-11 -11 -3 -39 12 -45 19 -8 45 18 37 38 -4 11 -40 17
-49 7z"/>
<path d="M3196 3795 c-11 -16 -12 -24 -5 -23 20 5 48 31 43 40 -9 14 -21 9
-38 -17z"/>
<path d="M2901 3764 c-17 -14 -30 -28 -29 -32 1 -4 -2 -14 -6 -23 -13 -29 20
-89 54 -101 26 -9 30 -15 27 -37 -2 -14 -2 -20 0 -13 3 8 12 10 25 6 16 -5 19
-3 12 7 -6 12 -5 12 8 1 13 -10 15 -9 14 8 0 12 -8 25 -16 30 -12 8 -13 10 -1
10 10 0 8 7 -7 23 -28 29 -28 35 3 63 65 60 -15 116 -84 58z"/>
<path d="M4340 3675 c0 -2 6 -8 13 -14 10 -8 14 -7 14 2 0 8 -6 14 -14 14 -7
0 -13 -1 -13 -2z"/>
<path d="M4900 3535 c-7 -8 -8 -15 -2 -15 5 0 15 7 22 15 7 8 8 15 2 15 -5 0
-15 -7 -22 -15z"/>
<path d="M4091 3526 c-10 -12 -8 -17 7 -25 20 -11 35 -5 26 10 -2 4 -12 5 -22
2 -15 -6 -15 -5 -3 10 7 9 11 17 8 17 -2 0 -10 -6 -16 -14z"/>
<path d="M4610 3523 c8 -3 19 -11 23 -17 6 -7 7 -6 4 4 -2 8 -12 16 -23 17
-13 2 -15 1 -4 -4z"/>
<path d="M4838 3523 c7 -3 16 -2 19 1 4 3 -2 6 -13 5 -11 0 -14 -3 -6 -6z"/>
<path d="M2824 3475 c-9 -23 3 -45 25 -45 22 0 41 27 34 48 -6 17 -52 15 -59
-3z"/>
<path d="M2921 3474 c0 -11 3 -14 6 -6 3 7 2 16 -1 19 -3 4 -6 -2 -5 -13z"/>
<path d="M4220 3480 c0 -5 5 -10 10 -10 6 0 10 5 10 10 0 6 -4 10 -10 10 -5 0
-10 -4 -10 -10z"/>
<path d="M2931 3434 c0 -11 3 -14 6 -6 3 7 2 16 -1 19 -3 4 -6 -2 -5 -13z"/>
<path d="M3123 3429 c-2 -23 3 -25 10 -4 4 8 3 16 -1 19 -4 3 -9 -4 -9 -15z"/>
<path d="M2947 3406 c-3 -7 -1 -18 5 -24 12 -12 38 -5 38 10 0 5 -10 7 -22 4
-13 -3 -17 -3 -10 0 14 7 16 24 3 24 -5 0 -11 -6 -14 -14z"/>
<path d="M3076 3388 c3 -5 10 -6 15 -3 13 9 11 12 -6 12 -8 0 -12 -4 -9 -9z"/>
<path d="M3056 3375 c7 -18 6 -19 -12 -5 -17 14 -18 13 -7 -1 7 -9 11 -19 8
-23 -3 -3 3 1 12 9 14 12 15 17 4 27 -10 11 -11 9 -5 -7z"/>
<path d="M2972 3363 c-19 -4 -21 -7 -11 -19 7 -9 8 -18 2 -26 -12 -16 -23 -58
-15 -58 14 0 40 33 35 46 -4 10 0 12 13 8 17 -6 17 -5 -1 9 l-20 16 20 15 c20
16 18 17 -23 9z m3 -62 c3 -5 2 -12 -3 -15 -5 -3 -9 1 -9 9 0 17 3 19 12 6z"/>
<path d="M4200 2649 c0 -5 5 -7 10 -4 6 3 10 8 10 11 0 2 -4 4 -10 4 -5 0 -10
-5 -10 -11z"/>
<path d="M340 2332 c0 -5 7 -9 15 -9 8 0 15 4 15 9 0 4 -7 8 -15 8 -8 0 -15
-4 -15 -8z"/>
<path d="M255 2318 c4 -11 -1 -20 -15 -28 -18 -10 -21 -9 -15 1 5 8 4 10 -3 5
-19 -12 -14 -61 9 -82 14 -13 35 -19 64 -18 52 1 135 39 135 62 0 12 -3 13 -8
5 -12 -19 -54 -30 -103 -25 -46 4 -47 4 -47 39 0 19 -5 40 -12 47 -8 8 -10 7
-5 -6z"/>
<path d="M386 2313 c2 -6 -4 -14 -11 -17 -8 -3 -12 -12 -9 -21 6 -15 25 -22
23 -7 -3 18 2 33 9 28 5 -3 9 1 9 9 0 8 -4 12 -8 9 -4 -2 -9 -1 -12 3 -2 5 -2
3 -1 -4z"/>
<path d="M842 2271 c2 -19 -4 -22 -17 -11 -9 8 -15 8 -15 2 0 -6 5 -12 12 -14
13 -5 2 -28 -13 -28 -6 0 -8 4 -4 9 6 11 -33 26 -42 17 -4 -3 -1 -6 5 -6 7 0
12 -5 12 -11 0 -11 25 -39 35 -39 3 0 3 5 0 11 -4 6 2 9 17 8 39 -4 59 1 53
11 -4 6 3 9 16 7 12 -1 24 4 26 11 3 6 0 12 -7 12 -6 0 -8 -5 -4 -12 5 -9 2
-9 -9 1 -9 7 -17 19 -16 25 0 8 2 8 5 0 3 -7 14 -10 24 -7 36 9 21 19 -29 19
-28 0 -49 -2 -49 -5z m18 -51 c0 -5 -5 -10 -11 -10 -5 0 -7 5 -4 10 3 6 8 10
11 10 2 0 4 -4 4 -10z"/>
<path d="M336 2255 c25 -19 40 -19 24 0 -7 8 -20 15 -28 15 -13 0 -12 -3 4
-15z"/>
<path d="M665 2200 c3 -5 8 -10 11 -10 2 0 4 5 4 10 0 6 -5 10 -11 10 -5 0 -7
-4 -4 -10z"/>
<path d="M636 2171 c-4 -5 3 -7 14 -4 23 6 26 13 6 13 -8 0 -17 -4 -20 -9z"/>
<path d="M726 2172 c-3 -5 1 -9 9 -9 8 0 12 4 9 9 -3 4 -7 8 -9 8 -2 0 -6 -4
-9 -8z"/>
<path d="M740 2071 c0 -17 21 -24 33 -12 9 9 7 10 -7 5 -13 -5 -17 -4 -12 4 4
7 2 12 -3 12 -6 0 -11 -4 -11 -9z"/>
<path d="M778 2043 c-13 -13 -20 -14 -31 -4 -12 9 -16 8 -21 -5 -4 -9 -4 -19
-1 -22 3 -3 5 0 5 7 0 8 7 10 19 6 16 -5 51 16 51 31 0 7 -5 4 -22 -13z"/>
<path d="M538 1963 c12 -2 30 -2 40 0 9 3 -1 5 -23 4 -22 0 -30 -2 -17 -4z"/>
<path d="M2580 1819 c0 -5 5 -7 10 -4 6 3 10 8 10 11 0 2 -4 4 -10 4 -5 0 -10
-5 -10 -11z"/>
<path d="M2580 1600 c0 -29 4 -40 15 -40 11 0 15 11 15 40 0 29 -4 40 -15 40
-11 0 -15 -11 -15 -40z"/>
<path d="M2576 1535 c-3 -9 0 -15 9 -15 16 0 20 16 6 24 -5 3 -11 -1 -15 -9z"/>
<path d="M2510 1410 c-12 -8 -11 -10 8 -10 12 0 22 5 22 10 0 13 -11 13 -30 0z"/>
</g>
</svg>
