<?xml version="1.0" standalone="no"?>
<!DOCTYPE svg PUBLIC "-//W3C//DTD SVG 20010904//EN"
 "http://www.w3.org/TR/2001/REC-SVG-20010904/DTD/svg10.dtd">
<svg version="1.0" xmlns="http://www.w3.org/2000/svg"
 width="512.000000pt" height="512.000000pt" viewBox="0 0 512.000000 512.000000"
 preserveAspectRatio="xMidYMid meet">
<metadata>
Created by potrace 1.14, written by Peter Selinger 2001-2017
</metadata>
<g transform="translate(0.000000,512.000000) scale(0.100000,-0.100000)"
fill="#000000" stroke="none">
<path d="M2759 4825 c-259 -181 -400 -285 -413 -307 -19 -30 -21 -51 -24 -238
l-3 -206 -87 -12 c-181 -24 -403 -115 -544 -222 -80 -61 -191 -173 -254 -255
-104 -138 -202 -388 -220 -560 -5 -47 -11 -65 -21 -65 -8 0 -28 -13 -44 -29
l-29 -29 0 -182 0 -182 29 -29 c25 -25 37 -29 85 -29 l55 0 5 -42 c7 -47 46
-425 46 -438 0 -4 -9 -10 -19 -13 -10 -2 -26 -15 -35 -28 -14 -22 -11 -69 33
-567 34 -370 53 -548 62 -558 7 -9 23 -20 36 -25 12 -4 25 -19 27 -31 3 -13
17 -162 31 -333 30 -347 38 -381 105 -420 34 -20 51 -20 980 -20 929 0 946 0
980 20 67 39 75 73 105 420 14 171 28 320 31 333 2 12 15 27 27 31 13 5 29 16
36 25 9 10 28 188 62 558 44 498 47 545 33 567 -9 13 -25 26 -35 28 -10 3 -19
9 -19 13 0 13 39 391 46 437 l5 43 55 0 c48 0 60 4 85 29 l29 29 0 182 0 182
-29 29 c-16 16 -36 29 -44 29 -10 0 -16 18 -21 65 -18 172 -116 422 -220 560
-63 82 -174 194 -254 255 -144 110 -391 208 -567 226 l-66 7 3 106 3 106 334
235 c184 129 344 248 355 263 29 40 29 134 0 174 -12 16 -65 52 -130 85 -181
95 -137 111 -605 -217z m486 103 c14 -6 25 -16 25 -22 0 -6 -153 -118 -340
-250 -187 -131 -347 -248 -355 -259 -12 -17 -15 -55 -15 -169 l0 -148 -40 0
-40 0 0 178 0 179 358 251 c196 138 362 251 369 252 7 0 24 -5 38 -12z m-925
-1488 l0 -480 -171 0 -171 0 -29 -29 c-37 -37 -37 -65 0 -102 l29 -29 931 0
931 0 0 -80 0 -80 -1280 0 -1280 0 0 80 0 80 211 0 211 0 29 29 c37 37 37 65
0 102 l-29 29 -172 0 -171 0 6 48 c63 461 415 824 874 902 25 4 54 8 64 9 16
1 17 -28 17 -479z m320 0 l0 -480 -80 0 -80 0 0 480 0 480 80 0 80 0 0 -480z
m348 444 c404 -104 709 -453 767 -876 l6 -48 -480 0 -481 0 0 481 0 480 48 -6
c26 -4 89 -17 140 -31z m-1453 -1436 c3 -18 14 -109 25 -203 11 -93 23 -187
26 -207 l6 -38 -49 0 -49 0 -22 228 c-13 125 -23 233 -22 240 0 7 15 12 40 12
36 0 39 -2 45 -32z m1895 10 c0 -59 -7 -65 -82 -72 -39 -3 -108 -19 -152 -35
-45 -16 -112 -41 -151 -54 -93 -34 -178 -47 -310 -47 -134 0 -230 16 -406 68
-74 22 -168 46 -209 53 -86 16 -315 17 -376 2 l-42 -10 -6 45 c-3 25 -6 51 -6
58 0 12 143 14 870 14 l870 0 0 -22z m239 -5 c0 -16 -10 -122 -22 -238 l-22
-210 -48 -3 -48 -3 5 33 c4 18 15 112 26 208 30 261 24 240 70 240 37 0 40 -2
39 -27z m-1582 -238 c50 -8 127 -26 170 -39 228 -72 354 -91 538 -83 147 7
239 27 395 85 58 22 129 43 157 47 l53 7 -5 -29 c-6 -36 -25 -182 -25 -194 0
-5 -318 -9 -809 -9 l-809 0 -5 23 c-6 22 -20 159 -19 174 1 14 104 31 187 32
44 1 121 -6 172 -14z m1593 -382 c0 -23 -72 -832 -76 -850 l-4 -23 -1043 0
-1042 0 -33 378 c-19 208 -36 406 -39 440 l-6 62 1122 0 c616 0 1121 -3 1121
-7z m-435 -1070 c-3 -21 -12 -97 -20 -170 -15 -144 -24 -169 -61 -183 -15 -6
-266 -10 -614 -10 l-589 0 -26 23 c-24 20 -28 34 -40 137 -12 105 -16 117 -41
138 -50 44 -124 7 -124 -62 0 -17 5 -71 11 -121 17 -152 70 -229 177 -261 68
-21 1218 -20 1286 0 125 38 157 98 185 354 12 100 21 185 21 187 0 3 25 5 55
5 30 0 55 -3 55 -7 0 -23 -52 -592 -56 -611 l-4 -22 -903 2 -902 3 -27 290
c-14 160 -27 302 -27 318 l-1 27 825 0 825 0 -5 -37z"/>
<path d="M2371 1733 c-63 -23 -134 -97 -156 -162 -57 -173 50 -387 241 -481
57 -28 83 -35 150 -38 138 -7 227 38 282 142 23 44 27 63 27 141 0 83 -3 96
-34 159 -44 90 -125 171 -216 216 -62 30 -81 34 -160 37 -64 2 -103 -2 -134
-14z m206 -158 c52 -22 99 -60 134 -108 42 -58 36 -68 -13 -20 -46 44 -96 73
-126 73 -18 0 -112 54 -112 65 0 11 83 4 117 -10z m-158 -159 c28 -19 75 -42
105 -50 48 -14 63 -25 112 -84 l57 -67 -56 -3 c-69 -4 -126 19 -187 74 -39 36
-90 121 -90 152 0 17 2 16 59 -22z"/>
</g>
</svg>
